HIERARCHY
ROOT hip
{
  OFFSET 0 0 0
  CHANNELS 6 Xposition Yposition Zposition Zrotation Yrotation Xrotation
  JOINT abdomen
  {
    OFFSET 0 20.6881 -0.73152
    CHANNELS 3 Zrotation Xrotation Yrotation
    JOINT chest
    {
      OFFSET 0 11.7043 -0.48768
      CHANNELS 3 Zrotation Xrotation Yrotation
      JOINT neck
      {
        OFFSET 0 22.1894 -2.19456
        CHANNELS 3 Zrotation Xrotation Yrotation
        JOINT head
        {
          OFFSET -0.24384 7.07133 1.2192
          CHANNELS 3 Zrotation Xrotation Yrotation
          JOINT leftEye
          {
            OFFSET 4.14528 8.04674 8.04672
            CHANNELS 3 Zrotation Xrotation Yrotation
            End Site
            {
              OFFSET 1 0 0
            }
          }
          JOINT rightEye
          {
            OFFSET -3.6576 8.04674 8.04672
            CHANNELS 3 Zrotation Xrotation Yrotation
            End Site
            {
              OFFSET 1 0 0
            }
          }
        }
      }
      JOINT rCollar
      {
        OFFSET -2.68224 19.2634 -4.8768
        CHANNELS 3 Zrotation Xrotation Yrotation
        JOINT rShldr
        {
          OFFSET -8.77824 -1.95073 1.46304
          CHANNELS 3 Zrotation Xrotation Yrotation
          JOINT rForeArm
          {
            OFFSET -28.1742 -1.7115 0.48768
            CHANNELS 3 Zrotation Xrotation Yrotation
            JOINT rHand
            {
              OFFSET -22.5879 0.773209 7.07136
              CHANNELS 3 Zrotation Xrotation Yrotation
              JOINT rThumb1
              {
                OFFSET -1.2192 -0.487915 3.41376
                CHANNELS 3 Zrotation Xrotation Yrotation
                JOINT rThumb2
                {
                  OFFSET -3.37035 -0.52449 3.41376
                  CHANNELS 3 Zrotation Xrotation Yrotation
                  End Site
                  {
                    OFFSET -1.78271 -1.18214 1.43049
                  }
                }
              }
              JOINT rIndex1
              {
                OFFSET -7.75947 0.938293 5.60832
                CHANNELS 3 Zrotation Xrotation Yrotation
                JOINT rIndex2
                {
                  OFFSET -2.54057 -0.884171 1.56538
                  CHANNELS 3 Zrotation Xrotation Yrotation
                  End Site
                  {
                    OFFSET -1.62519 -0.234802 1.16502
                  }
                }
              }
              JOINT rMid1
              {
                OFFSET -8.24714 1.18213 3.41376
                CHANNELS 3 Zrotation Xrotation Yrotation
                JOINT rMid2
                {
                  OFFSET -3.10165 -0.590103 1.0647
                  CHANNELS 3 Zrotation Xrotation Yrotation
                  End Site
                  {
                    OFFSET -2.48547 -0.328903 0.83742
                  }
                }
              }
              JOINT rRing1
              {
                OFFSET -8.82822 0.546677 1.51678
                CHANNELS 3 Zrotation Xrotation Yrotation
                JOINT rRing2
                {
                  OFFSET -2.60934 -0.819778 -0.0198488
                  CHANNELS 3 Zrotation Xrotation Yrotation
                  End Site
                  {
                    OFFSET -2.33842 -0.294052 0.168128
                  }
                }
              }
              JOINT rPinky1
              {
                OFFSET -8.27202 -0.0477905 -0.4584
                CHANNELS 3 Zrotation Xrotation Yrotation
                JOINT rPinky2
                {
                  OFFSET -1.82734 -0.647385 -0.700984
                  CHANNELS 3 Zrotation Xrotation Yrotation
                  End Site
                  {
                    OFFSET -1.69225 -0.51767 -0.607171
                  }
                }
              }
            }
          }
        }
      }
      JOINT lCollar
      {
        OFFSET 2.68224 19.2634 -4.8768
        CHANNELS 3 Zrotation Xrotation Yrotation
        JOINT lShldr
        {
          OFFSET 8.77824 -1.95073 1.46304
          CHANNELS 3 Zrotation Xrotation Yrotation
          JOINT lForeArm
          {
            OFFSET 28.1742 -1.7115 0.48768
            CHANNELS 3 Zrotation Xrotation Yrotation
            JOINT lHand
            {
              OFFSET 22.5879 0.773209 7.07136
              CHANNELS 3 Zrotation Xrotation Yrotation
              JOINT lThumb1
              {
                OFFSET 1.2192 -0.487915 3.41376
                CHANNELS 3 Zrotation Xrotation Yrotation
                JOINT lThumb2
                {
                  OFFSET 3.37035 -0.52449 3.41376
                  CHANNELS 3 Zrotation Xrotation Yrotation
                  End Site
                  {
                    OFFSET 1.78271 -1.18214 1.43049
                  }
                }
              }
              JOINT lIndex1
              {
                OFFSET 7.75947 0.938293 5.60832
                CHANNELS 3 Zrotation Xrotation Yrotation
                JOINT lIndex2
                {
                  OFFSET 2.54057 -0.884171 1.56538
                  CHANNELS 3 Zrotation Xrotation Yrotation
                  End Site
                  {
                    OFFSET 1.62519 -0.234802 1.16502
                  }
                }
              }
              JOINT lMid1
              {
                OFFSET 8.24714 1.18213 3.41376
                CHANNELS 3 Zrotation Xrotation Yrotation
                JOINT lMid2
                {
                  OFFSET 3.10165 -0.590103 1.0647
                  CHANNELS 3 Zrotation Xrotation Yrotation
                  End Site
                  {
                    OFFSET 2.48547 -0.328903 0.83742
                  }
                }
              }
              JOINT lRing1
              {
                OFFSET 8.82822 0.546677 1.51678
                CHANNELS 3 Zrotation Xrotation Yrotation
                JOINT lRing2
                {
                  OFFSET 2.60934 -0.819778 -0.0198488
                  CHANNELS 3 Zrotation Xrotation Yrotation
                  End Site
                  {
                    OFFSET 2.33842 -0.294052 0.168128
                  }
                }
              }
              JOINT lPinky1
              {
                OFFSET 8.27202 -0.0477905 -0.4584
                CHANNELS 3 Zrotation Xrotation Yrotation
                JOINT lPinky2
                {
                  OFFSET 1.82734 -0.647385 -0.700984
                  CHANNELS 3 Zrotation Xrotation Yrotation
                  End Site
                  {
                    OFFSET 1.69225 -0.51767 -0.607171
                  }
                }
              }
            }
          }
        }
      }
    }
  }
  JOINT rButtock
  {
    OFFSET -8.77824 4.35084 1.2192
    CHANNELS 3 Zrotation Xrotation Yrotation
    JOINT rThigh
    {
      OFFSET 0 -1.70687 -2.19456
      CHANNELS 3 Zrotation Xrotation Yrotation
      JOINT rShin
      {
        OFFSET 0 -36.8199 0.73152
        CHANNELS 3 Zrotation Xrotation Yrotation
        JOINT rFoot
        {
          OFFSET 0.73152 -45.1104 -5.12064
          CHANNELS 3 Zrotation Xrotation Yrotation
          End Site
          {
            OFFSET -1.1221 -3.69964 12.103
          }
        }
      }
    }
  }
  JOINT lButtock
  {
    OFFSET 8.77824 4.35084 1.2192
    CHANNELS 3 Zrotation Xrotation Yrotation
    JOINT lThigh
    {
      OFFSET 0 -1.70687 -2.19456
      CHANNELS 3 Zrotation Xrotation Yrotation
      JOINT lShin
      {
        OFFSET 0 -36.8199 0.73152
        CHANNELS 3 Zrotation Xrotation Yrotation
        JOINT lFoot
        {
          OFFSET -0.73152 -45.1104 -5.12064
          CHANNELS 3 Zrotation Xrotation Yrotation
          End Site
          {
            OFFSET 1.1221 -3.69964 12.103
          }
        }
      }
    }
  }
}
MOTION
Frames:	6
Frame Time:	0.03333
0.6470900028944016 53.28419804573059 1.7230000346899033 -12.168793678283691 -28.429000854492188 4.7378153800964355 2.0799474716186523 13.80549144744873 5.732583522796631 -0.9038252234458923 -7.960568904876709 1.2454439401626587 -0.36248525977134705 9.606651306152344 6.4626264572143555 6.1818084716796875 -20.3411922454834 13.956109046936035 -0.0 0.0 -0.0 -0.0 0.0 -0.0 -0.0 0.0 -0.0 107.14398193359375 42.518943786621094 -54.842529296875 -26.830585479736328 -44.43350601196289 92.33771514892578 -7.532443523406982 -58.683128356933594 -13.358365058898926 -0.0 0.0 -0.0 -0.0 0.0 -0.0 -0.0 0.0 -0.0 7.730902194976807 5.47491455078125 0.4173222780227661 -0.0 0.0 -0.0 2.905566453933716 0.9650754332542419 0.10300818830728531 -0.0 0.0 -0.0 10.278596878051758 0.7318810820579529 0.026273518800735474 -0.0 0.0 -0.0 2.221662998199463 -0.7334509491920471 -0.20832103490829468 -0.0 0.0 -0.0 -68.13509368896484 -21.612003326416016 -81.87129211425781 6.381877422332764 -2.2192201614379883 -11.167119026184082 10.764873504638672 64.43666076660156 -17.043527603149414 -0.0 0.0 -0.0 -0.0 0.0 -0.0 -0.0 0.0 -0.0 -7.730902194976807 5.47491455078125 -0.4173222780227661 -0.0 0.0 -0.0 -2.905566453933716 0.9650754332542419 -0.10300818830728531 -0.0 0.0 -0.0 -10.278596878051758 0.7318810820579529 -0.026273518800735474 -0.0 0.0 -0.0 -2.221662998199463 -0.7334509491920471 0.20832103490829468 -0.0 0.0 -0.0 -10.614806175231934 -6.620321750640869 -1.8953940868377686 -0.5589718818664551 57.49558639526367 2.807119607925415 -14.358168601989746 -22.815410614013672 -34.54579544067383 0.0 0.0 0.0 48.6825065612793 -51.64380645751953 28.100109100341797 0.46733900904655457 42.980751037597656 -0.1839999556541443 -1.4230046272277832 22.794994354248047 -0.8976102471351624
1.1754699982702732 52.51989960670471 3.2620000652968884 -11.60379409790039 -29.222103118896484 5.170915603637695 2.041327953338623 13.675909042358398 5.895406246185303 -0.2469409555196762 -8.06279468536377 1.3212131261825562 -0.3517398536205292 10.00097370147705 6.653976917266846 5.882120609283447 -21.02800178527832 14.317293167114258 -0.0 0.0 -0.0 -0.0 0.0 -0.0 -0.0 -0.0 -0.0 108.26399993896484 41.90951919555664 -58.18828582763672 -26.721302032470703 -44.728599548339844 92.89889526367188 -7.395822525024414 -58.38346862792969 -13.197497367858887 -0.0 0.0 -0.0 -0.0 0.0 -0.0 -0.0 0.0 -0.0 7.730902194976807 5.47491455078125 0.4173222780227661 -0.0 0.0 -0.0 2.905566453933716 0.9650754332542419 0.10300818830728531 -0.0 0.0 -0.0 10.278596878051758 0.7318810820579529 0.026273518800735474 -0.0 0.0 -0.0 2.221662998199463 -0.7334509491920471 -0.20832103490829468 -0.0 -0.0 -0.0 -70.23359680175781 -22.68829917907715 -82.15760040283203 6.1629486083984375 -2.1152820587158203 -10.779291152954102 13.82726764678955 68.0072021484375 -20.379438400268555 -0.0 0.0 -0.0 -0.0 0.0 -0.0 -0.0 0.0 -0.0 -7.730902194976807 5.47491455078125 -0.4173222780227661 -0.0 0.0 -0.0 -2.905566453933716 0.9650754332542419 -0.10300818830728531 -0.0 0.0 -0.0 -10.278596878051758 0.7318810820579529 -0.026273518800735474 -0.0 0.0 -0.0 -2.221662998199463 -0.7334509491920471 0.20832103490829468 -0.0 0.0 -0.0 -11.860595703125 -6.3647541999816895 -1.1962976455688477 -0.526814877986908 57.67509078979492 2.966944456100464 -14.666298866271973 -22.305599212646484 -35.834598541259766 0.0 0.0 0.0 51.67560577392578 -53.063594818115234 32.97101593017578 0.6149698495864868 47.69198989868164 -0.4144786298274994 -1.1404178142547607 20.223587036132812 -2.00605845451355
1.619420014321804 51.84260010719299 4.718000069260597 -11.41810131072998 -29.43369483947754 5.463405609130859 2.0708558559417725 13.86411190032959 5.553403854370117 0.4410448372364044 -8.235401153564453 1.2675271034240723 -0.5514100193977356 10.349540710449219 6.857379913330078 5.703856945037842 -21.462696075439453 14.726014137268066 -0.0 0.0 -0.0 -0.0 0.0 -0.0 -0.0 -0.0 -0.0 111.85930633544922 43.68940353393555 -61.28660583496094 -26.546707153320312 -45.13609313964844 93.73229217529297 -7.025974273681641 -57.52970504760742 -12.761832237243652 -0.0 0.0 0.0 -0.0 0.0 0.0 -0.0 0.0 0.0 7.730902194976807 5.47491455078125 0.4173222780227661 -0.0 0.0 0.0 2.905566453933716 0.9650754332542419 0.10300818830728531 -0.0 0.0 0.0 10.278596878051758 0.7318810820579529 0.026273518800735474 -0.0 0.0 0.0 2.221662998199463 -0.7334509491920471 -0.20832103490829468 -0.0 -0.0 -0.0 -71.19770812988281 -23.49620246887207 -81.94820404052734 6.3391547203063965 -2.195521354675293 -11.095187187194824 13.24285888671875 67.3821029663086 -19.73672866821289 0.0 0.0 -0.0 0.0 0.0 -0.0 0.0 0.0 -0.0 -7.730902194976807 5.47491455078125 -0.4173222780227661 0.0 0.0 -0.0 -2.905566453933716 0.9650754332542419 -0.10300818830728531 0.0 0.0 -0.0 -10.278596878051758 0.7318810820579529 -0.026273518800735474 0.0 0.0 -0.0 -2.221662998199463 -0.7334509491920471 0.20832103490829468 -0.0 0.0 -0.0 -12.682177543640137 -5.995819568634033 -1.1713171005249023 -0.5045722126960754 57.919593811035156 3.098511219024658 -15.123387336730957 -22.1919002532959 -36.97159194946289 0.0 0.0 0.0 54.30940246582031 -54.6405029296875 36.87240219116211 0.7591484785079956 51.80739974975586 -0.5998678207397461 -0.9925284385681152 18.237003326416016 -2.727226495742798
2.002860023640096 51.40770077705383 6.046000029891729 -11.587413787841797 -29.511003494262695 5.645201206207275 2.511934757232666 13.977009773254395 5.255568027496338 0.7961649894714355 -8.383822441101074 1.2194937467575073 -0.6960986256599426 10.673219680786133 6.96694278717041 5.551627159118652 -21.799102783203125 14.939509391784668 -0.0 0.0 -0.0 -0.0 0.0 -0.0 -0.0 0.0 0.0 112.77098846435547 44.67979049682617 -61.742401123046875 -26.430391311645508 -45.384803771972656 94.26129150390625 -7.561866760253906 -58.81087112426758 -13.403961181640625 -0.0 0.0 0.0 -0.0 0.0 0.0 -0.0 0.0 0.0 7.730902194976807 5.47491455078125 0.4173222780227661 -0.0 0.0 0.0 2.905566453933716 0.9650754332542419 0.10300818830728531 -0.0 0.0 0.0 10.278596878051758 0.7318810820579529 0.026273518800735474 -0.0 0.0 0.0 2.221662998199463 -0.7334509491920471 -0.20832103490829468 -0.0 0.0 0.0 -69.25569915771484 -23.878202438354492 -80.7105941772461 6.730161190032959 -2.381718397140503 -11.793509483337402 11.800520896911621 65.74604034423828 -18.170656204223633 0.0 0.0 -0.0 0.0 0.0 -0.0 0.0 0.0 -0.0 -7.730902194976807 5.47491455078125 -0.4173222780227661 0.0 0.0 -0.0 -2.905566453933716 0.9650754332542419 -0.10300818830728531 0.0 0.0 -0.0 -10.278596878051758 0.7318810820579529 -0.026273518800735474 0.0 0.0 -0.0 -2.221662998199463 -0.7334509491920471 0.20832103490829468 -0.0 0.0 -0.0 -13.411896705627441 -5.289361000061035 -1.3841142654418945 -0.4641297459602356 57.41569900512695 3.1599247455596924 -15.070805549621582 -21.958900451660156 -37.330196380615234 0.0 0.0 0.0 57.06300354003906 -55.613990783691406 40.64830780029297 0.9136618375778198 55.283599853515625 -0.78019118309021 -0.8972004055976868 16.320415496826172 -3.329988479614258
2.322724019177258 51.125699281692505 7.224000059068203 -11.956693649291992 -29.71560287475586 6.165993690490723 3.3633551597595215 14.014410018920898 5.002204418182373 0.817832350730896 -8.50808334350586 1.1774053573608398 -0.7804609537124634 10.972548484802246 6.981832027435303 5.42049503326416 -22.038799285888672 14.955504417419434 -0.0 0.0 -0.0 -0.0 0.0 -0.0 -0.0 0.0 -0.0 110.78898620605469 44.9627799987793 -59.303707122802734 -26.38409423828125 -45.48350143432617 94.46941375732422 -9.35658073425293 -62.19794845581055 -15.45144271850586 -0.0 -0.0 -0.0 0.0 0.0 0.0 -0.0 -0.0 -0.0 7.730902194976807 5.47491455078125 0.4173222780227661 -0.0 -0.0 -0.0 2.905566453933716 0.9650754332542419 0.10300818830728531 -0.0 -0.0 -0.0 10.278596878051758 0.7318810820579529 0.026273518800735474 -0.0 -0.0 -0.0 2.221662998199463 -0.7334509491920471 -0.20832103490829468 -0.0 0.0 -0.0 -64.42019653320312 -23.68080711364746 -78.41569519042969 7.328294277191162 -2.671809434890747 -12.874791145324707 9.89204216003418 63.06679153442383 -16.055519104003906 0.0 0.0 0.0 0.0 0.0 0.0 0.0 0.0 0.0 -7.730902194976807 5.47491455078125 -0.4173222780227661 0.0 0.0 0.0 -2.905566453933716 0.9650754332542419 -0.10300818830728531 0.0 0.0 0.0 -10.278596878051758 0.7318810820579529 -0.026273518800735474 0.0 0.0 0.0 -2.221662998199463 -0.7334509491920471 0.20832103490829468 -0.0 0.0 -0.0 -14.037096977233887 -4.245410919189453 -1.8334816694259644 -0.4043954908847809 56.1637077331543 3.1514458656311035 -14.51280403137207 -21.61209487915039 -36.91529846191406 0.0 0.0 0.0 59.73830795288086 -56.02818298339844 44.11461639404297 1.0680011510849 58.120582580566406 -0.9470099806785583 -0.8400272727012634 14.47461223602295 -3.8199808597564697
2.5790750281885266 50.89390277862549 8.299000095576048 -12.414002418518066 -30.008502960205078 7.038094520568848 4.107562065124512 13.8038969039917 4.94538688659668 0.8461064100265503 -8.526383399963379 1.1867746114730835 -0.7873919010162354 11.074758529663086 6.969773769378662 5.405231952667236 -22.111093521118164 14.928704261779785 -0.0 0.0 -0.0 -0.0 0.0 -0.0 0.0 0.0 -0.0 109.15101623535156 45.245426177978516 -57.285179138183594 -26.49119758605957 -45.264495849609375 93.9916000366211 -10.273103713989258 -63.6462516784668 -16.483745574951172 -0.0 -0.0 -0.0 -0.0 -0.0 -0.0 -0.0 -0.0 -0.0 7.730902194976807 5.47491455078125 0.4173222780227661 -0.0 -0.0 -0.0 2.905566453933716 0.9650754332542419 0.10300818830728531 -0.0 -0.0 -0.0 10.278596878051758 0.7318810820579529 0.026273518800735474 -0.0 -0.0 -0.0 2.221662998199463 -0.7334509491920471 -0.20832103490829468 0.0 0.0 -0.0 -62.501094818115234 -23.618696212768555 -77.42488861083984 7.632607460021973 -2.8207297325134277 -13.432304382324219 9.883728981018066 63.05287170410156 -16.046445846557617 0.0 0.0 0.0 0.0 0.0 0.0 0.0 0.0 0.0 -7.730902194976807 5.47491455078125 -0.4173222780227661 0.0 0.0 0.0 -2.905566453933716 0.9650754332542419 -0.10300818830728531 0.0 0.0 0.0 -10.278596878051758 0.7318810820579529 -0.026273518800735474 0.0 0.0 0.0 -2.221662998199463 -0.7334509491920471 0.20832103490829468 -0.0 0.0 -0.0 -14.6242036819458 -3.220174789428711 -2.167537212371826 -0.3400954604148865 54.50450134277344 3.1056041717529297 -13.697914123535156 -21.04190444946289 -36.26180648803711 0.0 0.0 0.0 62.641414642333984 -56.162620544433594 47.82851028442383 1.2255679368972778 60.55020523071289 -1.1128954887390137 -0.7885061502456665 12.823397636413574 -4.446988582611084
